HIERARCHY
ROOT SpineBase
{
  OFFSET 0.000000 0.000000 0.000000
  CHANNELS 6 Xposition Yposition Zposition Zrotation Xrotation Yrotation
  JOINT SpineMid
  {
    OFFSET 0.000000 27.386326 0.000000
    CHANNELS 3 Zrotation Xrotation Yrotation
    JOINT SpineShoulder
    {
      OFFSET -0.050649 20.422183 -0.652579
      CHANNELS 3 Zrotation Xrotation Yrotation
      JOINT Neck
      {
        OFFSET -0.031887 6.768056 -0.514507
        CHANNELS 3 Zrotation Xrotation Yrotation
        JOINT Head
        {
          OFFSET 2.872587 11.769487 1.379968
          CHANNELS 3 Zrotation Xrotation Yrotation
          End Site
          {
            OFFSET 0 0 0
          }
        }
      }
      JOINT ShoulderLeft
      {
        OFFSET -11.886913 -2.420574 -8.000082
        CHANNELS 3 Zrotation Xrotation Yrotation
        JOINT ElbowLeft
        {
          OFFSET -4.458231 -20.710093 -3.222709
          CHANNELS 3 Zrotation Xrotation Yrotation
          JOINT WristLeft
          {
            OFFSET 3.141400 -22.891341 -6.192836
            CHANNELS 3 Zrotation Xrotation Yrotation
            JOINT HandLeft
            {
              OFFSET 0.783282 -5.151374 -0.277260
              CHANNELS 3 Zrotation Xrotation Yrotation
              JOINT HandTipLeft
              {
                OFFSET 1.577623 -6.196890 -0.014029
                CHANNELS 3 Zrotation Xrotation Yrotation
                End Site
                {
                  OFFSET 0 0 0
                }
              }
              JOINT ThumbLeft
              {
                OFFSET 2.764429 0.301772 -0.876941
                CHANNELS 3 Zrotation Xrotation Yrotation
                End Site
                {
                  OFFSET 0 0 0
                }
              }
            }
          }
        }
      }
      JOINT ShoulderRight
      {
        OFFSET 11.572711 -3.729483 4.239180
        CHANNELS 3 Zrotation Xrotation Yrotation
        JOINT ElbowRight
        {
          OFFSET 1.456714 -28.043370 0.314076
          CHANNELS 3 Zrotation Xrotation Yrotation
          JOINT WristRight
          {
            OFFSET 2.803847 -20.687347 -4.101204
            CHANNELS 3 Zrotation Xrotation Yrotation
            JOINT HandRight
            {
              OFFSET -1.495171 -3.507133 -0.890276
              CHANNELS 3 Zrotation Xrotation Yrotation
              JOINT HandTipRight
              {
                OFFSET -0.434280 -5.234591 -0.515652
                CHANNELS 3 Zrotation Xrotation Yrotation
                End Site
                {
                  OFFSET 0 0 0
                }
              }
              JOINT ThumbRight
              {
                OFFSET -3.104866 1.934194 -1.874586
                CHANNELS 3 Zrotation Xrotation Yrotation
                End Site
                {
                  OFFSET 0 0 0
                }
              }
            }
          }
        }
      }
    }
  }
  JOINT HipLeft
  {
    OFFSET -5.785605 1.075624 -5.520488
    CHANNELS 3 Zrotation Xrotation Yrotation
    JOINT KneeLeft
    {
      OFFSET -7.966222 -27.034265 -2.557339
      CHANNELS 3 Zrotation Xrotation Yrotation
      JOINT AnkleLeft
      {
        OFFSET -4.570412 -35.275114 6.501622
        CHANNELS 3 Zrotation Xrotation Yrotation
        JOINT FootLeft
        {
          OFFSET 4.493835 -2.570691 -7.712768
          CHANNELS 3 Zrotation Xrotation Yrotation
          End Site
          {
            OFFSET 0 0 0
          }
        }
      }
    }
  }
  JOINT HipRight
  {
    OFFSET 5.562561 0.627471 -0.731971
    CHANNELS 3 Zrotation Xrotation Yrotation
    JOINT KneeRight
    {
      OFFSET -4.148935 -27.568934 2.025947
      CHANNELS 3 Zrotation Xrotation Yrotation
      JOINT AnkleRight
      {
        OFFSET -4.922567 -35.340536 6.487208
        CHANNELS 3 Zrotation Xrotation Yrotation
        JOINT FootRight
        {
          OFFSET 2.993283 -3.499676 -8.228308
          CHANNELS 3 Zrotation Xrotation Yrotation
          End Site
          {
            OFFSET 0 0 0
          }
        }
      }
    }
  }
}
MOTION
Frames: 14
Frame Time: 0.033333
-18.185340 17.197563 325.812192 -16.634407 -18.583165 -23.845677 -0.020351 0.021342 20.545572 0.211268 0.503937 -0.694755 -9.630378 15.563622 9.485625 0.000000 0.000000 0.000000 -3.506090 45.478655 5.808592 -7.689986 -9.077470 8.640158 11.308311 -13.579733 -6.140764 -46.608047 33.947164 28.710539 0.000000 0.000000 0.000000 0.000000 0.000000 0.000000 -4.812850 27.150197 7.131515 141.341212 -16.340829 5.183866 57.242777 -20.336156 -29.382726 -60.296606 -29.710617 79.006158 0.000000 0.000000 0.000000 0.000000 0.000000 0.000000 111.500620 33.707492 -67.321617 -36.542012 0.872857 8.834754 -63.469343 -33.820094 -6.363653 0.000000 0.000000 0.000000 139.580352 4.813125 -18.542255 -116.231987 -25.771695 10.974173 -17.801604 -8.136869 79.967778 0.000000 0.000000 0.000000
-19.548325 14.206862 324.174668 -17.786647 -17.505743 -28.927808 0.094081 -0.010209 25.548753 0.305142 0.361612 -0.764280 0.296029 9.940473 6.373949 0.000000 0.000000 0.000000 -10.559733 49.290980 10.687547 -1.257488 -15.656568 8.806817 19.802037 -34.267747 -7.030347 -54.364198 40.544615 39.646095 0.000000 0.000000 0.000000 0.000000 0.000000 0.000000 -8.205280 32.464498 10.220808 173.463729 -36.760064 74.086569 2.230955 11.330942 139.695133 1.071849 -11.591409 -135.862905 0.000000 0.000000 0.000000 0.000000 0.000000 0.000000 108.841542 35.227234 -58.053818 -37.060603 9.646475 5.534360 -53.716059 -25.857871 -2.735973 0.000000 0.000000 0.000000 135.385272 6.944910 -11.845881 -108.311464 -18.331818 17.684003 -20.760912 -0.202132 82.146529 0.000000 0.000000 0.000000
-24.416546 14.172680 316.840767 -19.723479 -13.029420 -44.882526 0.337252 -0.076956 41.882895 0.416766 -0.010718 -0.897037 2.763749 8.388451 5.362380 0.000000 0.000000 0.000000 2.475549 39.802738 3.281782 -2.571552 -13.452920 7.149549 15.019821 -55.414469 -11.293798 -22.260551 51.889904 23.164455 0.000000 0.000000 0.000000 0.000000 0.000000 0.000000 1.156463 25.055423 5.568999 177.943194 -44.433750 96.508909 25.143029 23.473175 87.558129 -11.678000 10.132401 -73.958839 0.000000 0.000000 0.000000 0.000000 0.000000 0.000000 107.428173 46.686305 -45.813222 -35.276264 21.485373 1.199557 -44.145290 -15.833206 0.113732 0.000000 0.000000 0.000000 142.138404 21.469949 -27.581233 -108.896290 -22.787724 13.503689 -29.643405 20.449215 85.573534 0.000000 0.000000 0.000000
-26.163010 12.939585 316.116571 -17.693702 -14.243830 -53.366023 0.166835 -0.005179 50.512614 0.287856 0.166870 -0.780875 5.929757 2.402792 5.051782 0.000000 0.000000 0.000000 1.895905 50.355574 1.781981 -2.587540 -21.419069 8.126980 23.178107 -75.195168 -7.021171 11.330026 55.584885 -7.788413 0.000000 0.000000 0.000000 0.000000 0.000000 0.000000 1.505747 31.932445 6.162085 -179.806349 -41.920291 111.171295 55.237957 8.146231 37.327683 -25.152796 24.705524 -35.962911 0.000000 0.000000 0.000000 0.000000 0.000000 0.000000 97.863485 50.883738 -30.586696 -31.044412 33.351894 -4.219574 -35.647237 -3.055377 3.921282 0.000000 0.000000 0.000000 139.569957 30.974916 -35.120215 -105.152692 -24.237216 11.717095 -47.153568 53.469178 89.629865 0.000000 0.000000 0.000000
-29.553224 14.240407 314.114746 -15.394406 -19.544623 -56.650738 -0.113499 0.168792 53.472509 0.187479 0.505437 -0.641783 3.018957 9.884982 5.194234 0.000000 0.000000 0.000000 13.991074 45.518456 -6.299160 -5.251488 -17.271768 6.253725 -13.123998 -70.485356 -28.509926 57.227786 46.213857 -41.786415 0.000000 0.000000 0.000000 0.000000 0.000000 0.000000 23.197682 9.327078 -3.797333 146.843487 -70.260080 103.960018 45.743468 12.357541 31.863685 -21.580129 5.226045 -30.347898 0.000000 0.000000 0.000000 0.000000 0.000000 0.000000 92.722759 56.957358 -33.867526 -29.531381 31.156640 -3.013117 -29.646239 14.564793 10.702576 0.000000 0.000000 0.000000 141.998896 35.893969 -55.263800 -111.182788 -34.388712 1.134813 -75.412544 80.692019 102.744447 0.000000 0.000000 0.000000
-32.018919 15.564398 314.175338 -13.809427 -22.972915 -54.118991 -0.276036 0.297651 50.857315 0.125440 0.702879 -0.554528 1.178849 11.355113 5.901254 0.000000 0.000000 0.000000 18.378120 45.751213 -10.037003 -4.303288 -16.823396 5.859072 -136.946129 -43.820221 -127.249631 133.167729 26.856269 -110.704259 0.000000 0.000000 0.000000 0.000000 0.000000 0.000000 74.331414 -48.947825 13.824609 -4.218113 -37.341704 -0.848588 48.532759 7.662409 17.068768 -20.402189 -6.551575 -15.643558 0.000000 0.000000 0.000000 0.000000 0.000000 0.000000 86.840861 60.736490 -37.527084 -26.235556 25.524767 0.275807 -28.408734 28.097071 17.336008 0.000000 0.000000 0.000000 136.158401 35.510562 -53.181058 -109.209714 -34.430640 1.278253 142.043811 84.326878 -124.061573 0.000000 0.000000 0.000000
-32.602096 16.977491 316.481498 -12.732875 -24.952897 -41.347589 -0.412889 0.326696 38.149855 0.242848 0.721639 -0.539582 5.192634 7.180885 5.230386 0.000000 0.000000 0.000000 17.355192 50.286277 -10.880049 -3.790207 -19.784859 6.292017 171.981636 -42.500365 115.531231 -154.496323 60.502246 118.778525 0.000000 0.000000 0.000000 0.000000 0.000000 0.000000 131.147615 -63.205150 66.953071 -23.182660 -3.280004 3.947414 48.308899 6.059676 12.226618 -19.332771 -13.355757 -1.950605 0.000000 0.000000 0.000000 0.000000 0.000000 0.000000 91.098042 55.290298 -52.349679 -25.197351 15.526713 5.761337 -34.404763 33.664268 27.013571 0.000000 0.000000 0.000000 127.453987 23.459198 -36.664953 -106.558280 -29.119886 7.027599 122.311176 78.973554 -108.773022 0.000000 0.000000 0.000000
-33.018645 17.480537 318.504320 -12.082712 -25.689772 2.363631 0.033532 0.552455 -5.498254 -0.013491 0.902601 -0.455857 12.300311 -0.417287 4.468753 0.000000 0.000000 0.000000 13.558969 55.086280 -9.384189 -0.661831 -23.493534 7.374018 122.503063 12.297189 -13.562795 -97.171344 -15.045373 -12.248717 0.000000 0.000000 0.000000 0.000000 0.000000 0.000000 163.874315 -58.732017 101.787651 -32.779331 17.409549 8.438279 47.830023 4.663416 19.176917 -17.696626 -4.919687 -21.552011 0.000000 0.000000 0.000000 0.000000 0.000000 0.000000 92.817139 20.473921 -62.814241 -20.417578 5.555136 12.213028 -43.752325 31.040026 36.829071 0.000000 0.000000 0.000000 120.914230 -19.846267 3.269957 -99.561113 -15.036203 18.747683 118.136062 77.540553 -105.983034 0.000000 0.000000 0.000000
-29.044221 15.521281 327.350990 -12.748379 -23.857686 48.816470 0.388771 0.109652 -51.956577 -0.134712 0.839888 -0.462498 25.335804 -15.442539 6.043600 0.000000 0.000000 0.000000 -25.219111 78.467096 20.862481 11.822588 -38.150056 17.051802 -3.339804 7.208440 0.267385 24.524106 -13.262482 5.685771 0.000000 0.000000 0.000000 0.000000 0.000000 0.000000 -173.619562 -46.141006 131.212038 -29.245338 37.763184 -6.786037 46.347844 8.240956 29.716046 -7.392853 -6.114911 -71.142369 0.000000 0.000000 0.000000 0.000000 0.000000 0.000000 90.405342 -21.813783 -61.912004 -15.875800 4.603427 14.233085 -45.586038 34.205876 40.785050 0.000000 0.000000 0.000000 141.840398 -70.265359 61.428292 -83.648167 5.773611 26.859592 118.850215 79.449704 -105.502521 0.000000 0.000000 0.000000
-25.888325 15.561192 331.276872 -13.358064 -21.950653 64.807612 0.464084 -0.097831 -67.873460 -0.227886 0.543834 -0.504518 38.113884 -25.800809 9.541466 0.000000 0.000000 0.000000 -54.333444 76.128630 46.880577 22.484916 -40.127440 22.126347 -12.564950 16.205633 2.860811 28.350692 -23.653085 6.864712 0.000000 0.000000 0.000000 0.000000 0.000000 0.000000 -162.876711 -38.159819 165.416245 2.561734 48.212753 -51.542369 40.347397 15.547919 36.003082 6.785279 -7.712755 -127.280598 0.000000 0.000000 0.000000 0.000000 0.000000 0.000000 91.092066 -34.625670 -62.897593 -13.509447 1.415748 16.899156 -50.503498 28.227824 44.324692 0.000000 0.000000 0.000000 -143.098551 -75.934762 148.509884 -77.144676 15.459621 28.550080 127.357345 85.612280 -109.924815 0.000000 0.000000 0.000000
-27.052851 16.918020 329.609365 -14.551356 -19.969077 73.164038 0.318941 -0.187172 -76.244249 -0.456033 0.665948 -0.514801 42.642729 -27.292831 10.318185 0.000000 0.000000 0.000000 -42.300277 79.072810 37.415386 14.113143 -48.007798 18.018887 2.295842 23.897280 3.670616 16.520743 -16.972580 6.074648 0.000000 0.000000 0.000000 0.000000 0.000000 0.000000 -163.281454 -42.657922 161.525903 7.918343 39.963296 -65.648798 29.985005 20.662006 51.667111 6.344698 -10.353780 -128.983120 0.000000 0.000000 0.000000 0.000000 0.000000 0.000000 94.227718 -39.601718 -63.005736 -11.195497 -3.265361 20.579354 -55.078406 17.907514 45.167446 0.000000 0.000000 0.000000 -114.309671 -66.929897 -175.028592 -71.921380 22.280951 28.747745 123.329046 83.030536 -107.527347 0.000000 0.000000 0.000000
-26.674763 17.094174 330.084453 -16.610505 -16.174966 77.310089 -0.179754 -0.410421 -80.327674 -0.144187 0.739964 -0.614589 54.493826 -31.670778 14.084138 0.000000 0.000000 0.000000 -33.078573 78.866998 29.680820 9.642202 -54.724082 14.729840 8.059563 19.040953 1.462574 10.940650 -19.111396 1.493414 0.000000 0.000000 0.000000 0.000000 0.000000 0.000000 -156.682367 -29.593771 -174.074587 35.147600 36.566588 -112.342392 18.459694 23.406007 79.397446 6.453498 -15.458400 -154.794193 0.000000 0.000000 0.000000 0.000000 0.000000 0.000000 95.177611 -42.225381 -60.096869 -9.859296 -5.426589 22.447877 -53.234485 18.451126 42.897625 0.000000 0.000000 0.000000 -106.171025 -60.204070 -160.536079 -65.021202 26.739064 26.738675 123.585661 83.080215 -107.725958 0.000000 0.000000 0.000000
-30.969579 19.956612 322.515074 -18.237971 -10.963988 77.366848 -1.023708 -0.825138 -79.975537 0.105888 0.691420 -0.689306 51.606206 -29.623762 13.149383 0.000000 0.000000 0.000000 14.247260 70.468619 -10.566514 -6.187907 -59.910814 4.367191 20.820710 31.113266 -0.895908 -5.318181 -33.966764 -6.642491 0.000000 0.000000 0.000000 0.000000 0.000000 0.000000 -164.423698 -36.867572 148.193628 13.608807 30.966101 -93.773107 5.128026 20.517888 97.589848 -0.940968 -10.999717 -121.381397 0.000000 0.000000 0.000000 0.000000 0.000000 0.000000 92.911439 -42.401588 -56.498353 -9.700531 -5.466004 22.594528 -52.530712 22.918149 44.186616 0.000000 0.000000 0.000000 -112.977690 -58.931447 -163.113351 -63.794924 26.969284 26.164067 123.054047 82.974441 -107.329537 0.000000 0.000000 0.000000
-32.628228 20.648051 319.748631 -15.843557 -13.628117 76.689826 -0.759656 -1.017667 -79.343742 0.288386 0.769962 -0.592954 50.515328 -26.993716 10.980182 0.000000 0.000000 0.000000 24.146166 65.876185 -19.468279 -24.782220 -61.806429 -8.460200 75.186735 39.654826 -25.666743 -65.543535 -44.253679 -34.888995 0.000000 0.000000 0.000000 0.000000 0.000000 0.000000 -173.157831 -41.365495 131.403688 11.326213 28.490554 -94.559011 1.773524 15.458913 112.637910 0.490006 -8.068031 -124.637647 0.000000 0.000000 0.000000 0.000000 0.000000 0.000000 93.665539 -41.314799 -60.069470 -10.084630 -6.404235 22.977505 -53.001157 24.535889 45.591987 0.000000 0.000000 0.000000 -106.090829 -60.665764 -157.200353 -63.230558 27.582769 26.053580 122.846559 82.982960 -107.139325 0.000000 0.000000 0.000000
